{
	"asset":{
		"generator":"Khronos glTF Blender I/O v4.0.44",
		"version":"2.0"
	},
	"scene":0,
	"scenes":[
		{
			"name":"Scene",
			"nodes":[
				0,
				1,
				2
			]
		}
	],
	"nodes":[
		{
			"mesh":0,
			"name":"Cylinder"
		},
		{
			"name":"Empty",
			"rotation":[
				0.70710688829422,
				0,
				0,
				0.7071066498756409
			],
			"translation":[
				0.14584463834762573,
				1.2050939798355103,
				0
			]
		},
		{
			"mesh":1,
			"name":"bungadi"
		}
	],
	"materials":[
		{
			"doubleSided":true,
			"name":"TheBase",
			"pbrMetallicRoughness":{
				"baseColorFactor":[
					0,
					0,
					0,
					1
				],
				"metallicFactor":0,
				"roughnessFactor":0.5
			}
		},
		{
			"doubleSided":true,
			"name":"Material.001",
			"pbrMetallicRoughness":{
				"baseColorFactor":[
					0.015995951369404793,
					0.10702290385961533,
					0.42326751351356506,
					1
				],
				"metallicFactor":0,
				"roughnessFactor":0.5
			}
		},
		{
			"doubleSided":true,
			"name":"Material.002",
			"pbrMetallicRoughness":{
				"baseColorFactor":[
					0.01444306317716837,
					0.4286900758743286,
					0.7083757519721985,
					1
				],
				"metallicFactor":0,
				"roughnessFactor":0.5
			}
		},
		{
			"doubleSided":true,
			"name":"Material.003",
			"pbrMetallicRoughness":{
				"baseColorFactor":[
					0.09530694782733917,
					0.7011017203330994,
					0.04666528105735779,
					1
				],
				"metallicFactor":0,
				"roughnessFactor":0.5
			}
		}
	],
	"meshes":[
		{
			"name":"Cylinder",
			"primitives":[
				{
					"attributes":{
						"POSITION":0,
						"NORMAL":1,
						"TEXCOORD_0":2
					},
					"indices":3,
					"material":0
				}
			]
		},
		{
			"name":"Circle.001",
			"primitives":[
				{
					"attributes":{
						"POSITION":4,
						"NORMAL":5,
						"TEXCOORD_0":6
					},
					"indices":7,
					"material":1
				},
				{
					"attributes":{
						"POSITION":8,
						"NORMAL":9,
						"TEXCOORD_0":10
					},
					"indices":11,
					"material":2
				},
				{
					"attributes":{
						"POSITION":12,
						"NORMAL":13,
						"TEXCOORD_0":14
					},
					"indices":15,
					"material":3
				}
			]
		}
	],
	"accessors":[
		{
			"bufferView":0,
			"componentType":5126,
			"count":72,
			"max":[
				1.3834302425384521,
				0.433294415473938,
				1.3834302425384521
			],
			"min":[
				-1.3834302425384521,
				0.02439868450164795,
				-1.3834302425384521
			],
			"type":"VEC3"
		},
		{
			"bufferView":1,
			"componentType":5126,
			"count":72,
			"type":"VEC3"
		},
		{
			"bufferView":2,
			"componentType":5126,
			"count":72,
			"type":"VEC2"
		},
		{
			"bufferView":3,
			"componentType":5123,
			"count":132,
			"type":"SCALAR"
		},
		{
			"bufferView":4,
			"componentType":5126,
			"count":60,
			"max":[
				0.5644661784172058,
				2.833174228668213,
				-0.01076313853263855
			],
			"min":[
				-1.0308477878570557,
				0.43694037199020386,
				-0.1388757973909378
			],
			"type":"VEC3"
		},
		{
			"bufferView":5,
			"componentType":5126,
			"count":60,
			"type":"VEC3"
		},
		{
			"bufferView":6,
			"componentType":5126,
			"count":60,
			"type":"VEC2"
		},
		{
			"bufferView":7,
			"componentType":5123,
			"count":108,
			"type":"SCALAR"
		},
		{
			"bufferView":8,
			"componentType":5126,
			"count":29,
			"max":[
				1.4355535507202148,
				1.9195729494094849,
				0.16280865669250488
			],
			"min":[
				-1.1395665407180786,
				0.9761671423912048,
				0.051424384117126465
			],
			"type":"VEC3"
		},
		{
			"bufferView":9,
			"componentType":5126,
			"count":29,
			"type":"VEC3"
		},
		{
			"bufferView":10,
			"componentType":5126,
			"count":29,
			"type":"VEC2"
		},
		{
			"bufferView":11,
			"componentType":5123,
			"count":33,
			"type":"SCALAR"
		},
		{
			"bufferView":12,
			"componentType":5126,
			"count":18,
			"max":[
				-0.10124855488538742,
				1.8487509489059448,
				0.1528838574886322
			],
			"min":[
				-1.0690544843673706,
				1.2987620830535889,
				0.04682627320289612
			],
			"type":"VEC3"
		},
		{
			"bufferView":13,
			"componentType":5126,
			"count":18,
			"type":"VEC3"
		},
		{
			"bufferView":14,
			"componentType":5126,
			"count":18,
			"type":"VEC2"
		},
		{
			"bufferView":15,
			"componentType":5123,
			"count":24,
			"type":"SCALAR"
		}
	],
	"bufferViews":[
		{
			"buffer":0,
			"byteLength":864,
			"byteOffset":0,
			"target":34962
		},
		{
			"buffer":0,
			"byteLength":864,
			"byteOffset":864,
			"target":34962
		},
		{
			"buffer":0,
			"byteLength":576,
			"byteOffset":1728,
			"target":34962
		},
		{
			"buffer":0,
			"byteLength":264,
			"byteOffset":2304,
			"target":34963
		},
		{
			"buffer":0,
			"byteLength":720,
			"byteOffset":2568,
			"target":34962
		},
		{
			"buffer":0,
			"byteLength":720,
			"byteOffset":3288,
			"target":34962
		},
		{
			"buffer":0,
			"byteLength":480,
			"byteOffset":4008,
			"target":34962
		},
		{
			"buffer":0,
			"byteLength":216,
			"byteOffset":4488,
			"target":34963
		},
		{
			"buffer":0,
			"byteLength":348,
			"byteOffset":4704,
			"target":34962
		},
		{
			"buffer":0,
			"byteLength":348,
			"byteOffset":5052,
			"target":34962
		},
		{
			"buffer":0,
			"byteLength":232,
			"byteOffset":5400,
			"target":34962
		},
		{
			"buffer":0,
			"byteLength":66,
			"byteOffset":5632,
			"target":34963
		},
		{
			"buffer":0,
			"byteLength":216,
			"byteOffset":5700,
			"target":34962
		},
		{
			"buffer":0,
			"byteLength":216,
			"byteOffset":5916,
			"target":34962
		},
		{
			"buffer":0,
			"byteLength":144,
			"byteOffset":6132,
			"target":34962
		},
		{
			"buffer":0,
			"byteLength":48,
			"byteOffset":6276,
			"target":34963
		}
	],
	"buffers":[
		{
			"byteLength":6324,
			"uri":"AdiKoding26OS.bin"
		}
	]
}
